<?xml version="1.0" standalone="no"?>
<!DOCTYPE svg PUBLIC "-//W3C//DTD SVG 20010904//EN"
 "http://www.w3.org/TR/2001/REC-SVG-20010904/DTD/svg10.dtd">
<svg version="1.0" xmlns="http://www.w3.org/2000/svg"
 width="1220.000000pt" height="1220.000000pt" viewBox="0 0 1220.000000 1220.000000"
 preserveAspectRatio="xMidYMid meet">
<metadata>
Created by potrace 1.11, written by Peter Selinger 2001-2013
</metadata>
<g transform="translate(0.000000,1220.000000) scale(0.100000,-0.100000)"
fill="#000000" stroke="none">
<path d="M4620 9018 c-805 -1751 -1484 -3227 -1509 -3280 -24 -54 -43 -100
-40 -102 2 -2 645 -12 1429 -21 784 -10 1426 -18 1427 -19 2 -1 -587 -1161
-1308 -2577 -1494 -2933 -1538 -3021 -1510 -2994 11 11 1363 1640 3005 3620
l2985 3600 -1176 3 c-1113 2 -1175 3 -1170 20 3 13 1288 2706 2311 4845 l42
87 -1511 0 -1510 0 -1465 -3182z"/>
</g>
</svg>
