<?xml version="1.0" standalone="no"?>
<!DOCTYPE svg PUBLIC "-//W3C//DTD SVG 20010904//EN"
 "http://www.w3.org/TR/2001/REC-SVG-20010904/DTD/svg10.dtd">
<svg version="1.0" xmlns="http://www.w3.org/2000/svg"
 width="512.000000pt" height="512.000000pt" viewBox="0 0 512.000000 512.000000"
 preserveAspectRatio="xMidYMid meet">
<metadata>
Created by potrace 1.11, written by Peter Selinger 2001-2013
</metadata>
<g transform="translate(0.000000,512.000000) scale(0.100000,-0.100000)"
fill="#000000" stroke="none">
<path d="M1961 3822 c-327 -713 -611 -1332 -632 -1374 -28 -57 -34 -78 -24
-82 8 -3 193 -6 412 -7 219 -1 482 -4 585 -8 l187 -6 -330 -650 c-660 -1300
-852 -1680 -842 -1670 8 8 1695 2047 2333 2820 l157 190 -488 3 c-269 1 -489
4 -489 6 0 5 876 1845 953 2004 l35 72 -631 0 -632 -1 -594 -1297z"/>
</g>
</svg>
